<svg width="62" height="73" viewBox="0 0 62 73" fill="none" xmlns="http://www.w3.org/2000/svg">
<path fill-rule="evenodd" clip-rule="evenodd" d="M29.4568 17.8314L29.9908 10.1584L32.1059 10.1292L32.5339 17.8251L29.4568 17.8314ZM29.9596 8.44722L30.4479 2.51655L31.8607 2.50406L32.1308 8.48677L29.9596 8.44722ZM19.1702 22.5859C19.9597 23.1126 20.9425 24.3345 21.7652 24.7363C22.8103 25.2463 27.5703 24.5281 28.6694 22.2841C29.382 20.8311 28.5967 19.8402 30.8405 19.6632C32.7915 19.5092 32.8351 20.4355 33.3358 21.9364C33.7846 23.2853 34.5409 23.6788 35.9309 24.1472C42.0621 26.2163 41.4616 23.1022 42.7602 22.7462C43.7533 22.7275 45.3698 23.8994 46.1447 24.3262C45.8019 25.8978 44.3642 27.7089 46.7327 29.8134C47.5846 30.5712 49.6892 33.2669 51.7337 32.2094C51.9643 30.9042 44.6758 17.8647 43.5871 15.9329L39.224 7.93721C38.2579 6.06996 35.3844 1.24882 34.8276 -0.000183105L31.8233 0.00189856C31.8628 0.745054 32.0269 1.39453 31.2395 1.41327C30.4188 1.42992 30.5663 0.76587 30.5331 0.0247969L27.3272 0.0476952L26.9137 0.745054C25.2931 3.72184 23.71 6.30935 22.0707 9.49638C21.0422 11.4927 19.9452 13.4182 18.8731 15.3625C17.1362 18.5079 12.3658 27.2301 11.0839 30.2277C10.5894 31.3809 9.81029 33.1087 12.0812 32.4655C13.573 32.0429 16.1347 29.395 16.6729 27.9837C17.6805 25.3316 13.8576 24.857 19.1702 22.5859Z" fill="white"/>
<path fill-rule="evenodd" clip-rule="evenodd" d="M45.4757 59.6021C44.6405 60.5597 43.5123 61.5547 42.4132 62.4394C36.1116 67.5104 25.8479 67.271 20.0221 62.76C18.2478 61.3861 17.9673 60.8594 16.8578 59.8831C13.6021 57.0208 15.4429 55.8051 12.0376 55.8239C10.8346 55.8322 10.4544 55.7406 10.095 56.7232C9.24311 59.0463 7.53941 58.4988 8.75486 60.4285C10.2092 60.6971 11.0195 59.5563 12.8562 60.4577C14.3978 61.2154 16.8266 63.6468 17.4956 65.1477C18.3101 66.9733 17.2567 67.7123 17.5289 69.1091C18.7817 70.4767 19.5422 68.7656 20.6974 68.1703C21.919 67.5374 24.0154 67.8226 25.3285 68.1619C27.427 68.7032 29.139 69.4338 29.8412 71.4634C30.1404 72.3253 30.0573 72.6396 30.8281 72.9893C32.2991 72.9539 32.056 70.9056 33.0928 69.8668C34.5035 68.4534 39.2614 67.1669 41.2581 68.1432C42.1722 68.5907 43.5518 70.5558 44.4535 69.1403C44.9605 67.8871 43.3482 66.5882 45.0561 64.263C46.0118 62.9619 48.2391 60.5701 49.9116 60.1995C51.2351 59.9081 51.6631 60.4327 52.65 60.4826C53.6493 60.5305 53.9527 59.4814 53.4499 58.8152C52.9512 58.1533 52.6188 58.1158 52.1492 57.229C51.6153 56.2194 52.0433 55.9009 50.5764 55.8364C49.7184 55.7968 48.4863 55.7115 47.969 56.1861C47.7882 56.3526 47.0278 57.7057 46.7888 58.0325C46.3463 58.6404 45.9204 59.0942 45.4757 59.6021Z" fill="white"/>
<path fill-rule="evenodd" clip-rule="evenodd" d="M34.6738 47.11C34.6448 46.4501 35.588 43.4171 35.9018 42.8572C36.3048 43.0799 36.498 43.7481 36.6539 44.1686C36.8575 44.7203 37.0403 45.2656 37.1774 45.8423C37.5265 47.3182 36.978 47.5846 34.6738 47.11ZM22.3117 51.3649L22.2992 54.1356L34.2479 54.1294C34.277 53.5444 34.2999 52.7867 34.2292 52.2247C34.0963 51.1255 33.6849 51.5752 33.6599 50.6967C34.3248 49.7204 38.1997 49.4852 38.5176 50.8341C38.0958 51.6584 37.674 50.9153 37.3998 51.9187C37.2772 52.3683 37.3083 53.5632 37.3354 54.0753L44.8337 54.1335C45.0685 51.0797 44.468 51.5169 44.0753 51.163C43.0095 50.1992 40.8009 39.6514 40.0883 38.5419L25.8167 38.367C26.1117 39.0498 26.974 39.9657 27.4705 40.457C29.2345 42.1952 32.9348 39.6639 32.2388 42.9217C31.95 44.2748 30.0718 50.7259 29.4443 51.0922C28.7213 51.5127 23.5126 51.392 22.3117 51.3649Z" fill="white"/>
<path fill-rule="evenodd" clip-rule="evenodd" d="M43.9112 24.2991C42.3218 24.2075 42.112 25.6168 40.8092 25.9374C38.877 26.4141 33.7742 25.5564 32.403 22.7399C32.1578 22.2341 31.9687 21.493 31.6238 21.1745C29.8786 19.5612 30.6951 23.5372 26.8597 25.1422C25.638 25.6543 24.433 25.9124 23.016 25.9894C20.716 26.1164 20.6973 25.7063 19.4507 24.7175C19.0102 24.3678 18.2768 23.9765 17.826 24.6134C17.452 25.1422 17.7283 26.0373 17.7657 26.6576C17.9132 29.0828 16.0018 31.1062 14.2441 32.4301C11.005 34.8677 9.91625 32.8152 8.86494 33.6354C8.31228 34.0642 8.2458 34.5701 8.63432 35.1384C9.32411 36.1438 10.1926 36.9369 11.4828 37.0056C15.0772 37.1992 14.4123 36.7371 16.1327 34.5992C18.8191 31.2581 24.4932 27.7776 30.1383 27.4653C36.4378 27.1156 43.0282 30.8668 46.1551 34.9219C46.8968 35.8857 47.1462 36.9557 48.7875 37.016C50.6242 37.0826 51.661 37.1014 52.5876 36.0855C52.7559 35.9023 53.535 34.9968 53.6161 34.772C53.8155 34.2245 53.2338 33.5167 52.7351 33.4272C51.3472 33.1753 50.0113 35.003 46.3068 31.0666C42.4984 27.0178 45.4342 26.26 43.9112 24.2991Z" fill="white"/>
<path fill-rule="evenodd" clip-rule="evenodd" d="M53.0655 45.886C53.0738 42.0828 52.8141 41.146 54.8004 41.527C56.905 41.9308 56.8032 43.5171 56.8074 45.7486C56.8095 46.881 56.8531 48.7379 56.6121 49.735C56.234 51.29 54.9271 51.0881 53.0655 51.0111V45.886ZM41.8086 40.89C43.6474 41.3188 46.6953 40.7922 48.1082 41.477C48.7398 42.0245 48.7979 49.4019 48.4406 50.6405C48.1518 51.6376 46.9862 51.24 46.0263 51.4982C45.7687 52.1601 45.8539 53.2967 45.8996 54.1315C48.7855 54.1211 56.1737 54.4874 58.3241 53.5153C62.4982 51.6293 63.456 43.2319 59.4211 39.9137C58.0769 38.8104 56.3191 38.6564 54.1978 38.5002C50.1775 38.2067 45.5464 38.367 41.4222 38.3733L41.8086 40.89Z" fill="white"/>
<path fill-rule="evenodd" clip-rule="evenodd" d="M19.5982 43.0008C19.5941 42.0245 19.484 41.1627 20.7306 41.5686C21.2811 41.7476 21.8338 42.2785 22.0935 42.8218C22.7438 44.177 21.2978 45.6549 19.8039 45.5009C19.511 44.7931 19.6024 43.9292 19.5982 43.0008ZM14.9193 51.2047L9.33657 51.4149L9.3158 54.1023L21.2417 54.1315C21.6032 48.8898 19.8143 53.6902 19.5671 48.7504C21.7881 48.5443 24.3623 48.3424 25.8354 47.2037C27.1818 46.1649 27.4789 42.8613 26.5086 41.0107C25.5383 39.1622 23.7287 38.7958 21.0962 38.5939C18.8378 38.4211 15.6548 38.1963 13.4171 38.2983C13.3984 39.5952 13.1761 40.6839 14.082 41.2335C15.0834 41.8392 14.9214 42.5803 14.9463 43.9625C14.9816 46.0338 15.1229 49.2333 14.9193 51.2047Z" fill="white"/>
<path fill-rule="evenodd" clip-rule="evenodd" d="M1.37287 41.3105C1.77179 42.7843 1.92761 49.5185 1.80295 51.3712C0.381818 51.3754 -0.170844 50.9215 0.11172 54.1232L8.28115 54.1273C8.43282 50.8653 8.21882 51.494 6.60031 51.342L6.58992 41.4812C10.2591 41.2959 8.31232 43.5254 9.99316 43.8085C10.5022 43.8938 11.4912 43.8439 12.0438 43.8397L12.0521 38.3774L0.142886 38.3733C-0.370301 41.1564 0.606208 41.0794 1.37287 41.3105Z" fill="white"/>
<path fill-rule="evenodd" clip-rule="evenodd" d="M15.4076 55.8655C15.125 57.2061 19.8559 61.3465 21.2978 62.3062C26.9366 66.0552 35.2286 65.9054 40.8259 62.2271C42.4797 61.1404 46.1344 57.8098 46.8242 55.8343C43.9071 55.7801 44.6779 56.3651 42.8849 58.2428C39.9283 61.3403 35.559 63.3116 30.8281 63.3095C20.7368 63.3054 18.7672 55.4825 15.4076 55.8655Z" fill="white"/>
<path fill-rule="evenodd" clip-rule="evenodd" d="M16.1057 36.8682C17.3086 37.4386 18.9791 35.7503 19.5754 35.1654C24.8091 30.0424 32.9286 28.935 39.357 32.8089C42.4776 34.6908 43.7679 37.2408 45.9245 36.9431C45.9993 36.1417 45.2555 35.5859 44.8607 35.1258C44.412 34.6033 43.9673 34.1204 43.4541 33.6499C39.947 30.44 36.203 28.8205 30.9652 28.8184C26.1242 28.8163 21.6364 30.4379 18.5615 33.7332C18.0524 34.2765 15.8688 36.0376 16.1057 36.8682Z" fill="white"/>
</svg>
